<svg width="84" height="32" viewBox="0 0 84 32" fill="none" xmlns="http://www.w3.org/2000/svg">
<path d="M33.5238 17.8534H39.0139L36.2796 8.74294L33.5238 17.8534ZM31.5029 22.9976C31.384 22.9976 31.2543 22.976 31.1138 22.9219C30.9733 22.8679 30.8653 22.7923 30.7788 22.695C30.6923 22.5977 30.6383 22.4897 30.6383 22.3708C30.6383 22.3059 30.6491 22.2627 30.6599 22.2087L35.3826 6.86249C35.4475 6.67877 35.5556 6.54909 35.7177 6.46263C35.8798 6.37617 36.0635 6.34375 36.258 6.34375C36.4742 6.34375 36.6579 6.38698 36.8308 6.48424C37.0037 6.5707 37.1118 6.70039 37.155 6.8733L41.8561 22.2195C41.8669 22.2627 41.8778 22.3059 41.8778 22.36C41.8778 22.4788 41.8345 22.5869 41.7373 22.6842C41.6508 22.7814 41.5319 22.8571 41.4022 22.9219C41.2617 22.9868 41.1212 23.0084 40.9699 23.0084C40.8511 23.0084 40.7322 22.976 40.6349 22.9219C40.5269 22.8571 40.462 22.7598 40.4296 22.6301L39.3705 19.1502H33.1564L32.1189 22.6301C32.0757 22.7706 32 22.8679 31.8919 22.9219C31.7839 22.976 31.6542 22.9976 31.5029 22.9976Z" fill="#47627B"/>
<path d="M50.4046 23.1381C49.5184 23.1381 48.7187 22.976 48.0054 22.6626C47.2921 22.3492 46.7302 21.8304 46.3087 21.128C45.8872 20.4255 45.6711 19.4745 45.6711 18.3073V7.02461C45.6711 6.84089 45.7467 6.71121 45.898 6.61394C46.0493 6.52748 46.2222 6.47345 46.4167 6.47345C46.6113 6.47345 46.7842 6.51668 46.9355 6.61394C47.0868 6.7004 47.1624 6.84089 47.1624 7.02461V18.3073C47.1624 19.4961 47.4434 20.3715 48.0162 20.9334C48.589 21.4954 49.3779 21.7656 50.3938 21.7656C51.4205 21.7656 52.2202 21.4846 52.793 20.9334C53.3658 20.3715 53.6467 19.5069 53.6467 18.3073V7.02461C53.6467 6.84089 53.7224 6.71121 53.8737 6.61394C54.025 6.52748 54.1979 6.47345 54.3924 6.47345C54.587 6.47345 54.7599 6.51668 54.9112 6.61394C55.0625 6.7004 55.1381 6.84089 55.1381 7.02461V18.3073C55.1381 19.4853 54.9328 20.4255 54.5113 21.128C54.1006 21.8412 53.5279 22.3492 52.8038 22.6626C52.1013 22.976 51.2908 23.1381 50.4046 23.1381Z" fill="#47627B"/>
<path d="M61.6765 14.1898H64.7457C65.7508 14.1898 66.5721 13.9412 67.1989 13.4549C67.8258 12.9686 68.1392 12.1472 68.1392 11.0016C68.1392 9.8669 67.8258 9.06717 67.1989 8.58085C66.5721 8.09452 65.7508 7.85676 64.7457 7.85676H61.6765V14.1898ZM68.82 23.03C68.6579 23.03 68.5066 22.9436 68.3661 22.7815C68.2256 22.6193 68.1284 22.4464 68.0527 22.2627L64.5512 15.4866H61.6765V22.4248C61.6765 22.6193 61.6008 22.7706 61.4387 22.8679C61.2766 22.9652 61.1145 23.0192 60.9308 23.0192C60.7363 23.0192 60.5633 22.9652 60.412 22.8679C60.2607 22.7706 60.1851 22.6193 60.1851 22.4248V7.02461C60.1851 6.87331 60.2391 6.75443 60.3472 6.64636C60.4553 6.5491 60.585 6.49506 60.7579 6.47345H64.7565C65.6427 6.47345 66.4641 6.61394 67.1989 6.88412C67.9338 7.1543 68.5282 7.6082 68.9713 8.25663C69.4144 8.89425 69.6414 9.79125 69.6414 10.9368C69.6414 11.8662 69.4901 12.6443 69.1766 13.2387C68.8632 13.8439 68.4418 14.3086 67.9122 14.6329C67.3827 14.9571 66.7775 15.184 66.1182 15.3029L69.5981 21.9925C69.6414 22.0358 69.6738 22.0898 69.6738 22.1438C69.6846 22.1979 69.6846 22.2411 69.6846 22.2951C69.6846 22.414 69.6414 22.5329 69.5549 22.6518C69.4684 22.7706 69.3604 22.8679 69.2307 22.9328C69.0902 22.9868 68.9605 23.03 68.82 23.03Z" fill="#47627B"/>
<path d="M75.4232 17.8534H80.9132L78.179 8.74294L75.4232 17.8534ZM73.4131 22.9976C73.2942 22.9976 73.1645 22.976 73.024 22.9219C72.8835 22.8679 72.7754 22.7923 72.689 22.695C72.6025 22.5977 72.5485 22.4897 72.5485 22.3708C72.5485 22.3059 72.5593 22.2627 72.5701 22.2087L77.2928 6.86249C77.3577 6.67877 77.4658 6.54909 77.6279 6.46263C77.79 6.37617 77.9737 6.34375 78.1682 6.34375C78.3736 6.34375 78.5681 6.38698 78.741 6.48424C78.9139 6.5707 79.022 6.70039 79.0652 6.8733L83.7663 22.2195C83.7771 22.2627 83.7879 22.3059 83.7879 22.36C83.7879 22.4788 83.7447 22.5869 83.6474 22.6842C83.561 22.7814 83.4421 22.8571 83.3124 22.9219C83.1719 22.9868 83.0314 23.0084 82.8801 23.0084C82.7613 23.0084 82.6424 22.976 82.5451 22.9219C82.437 22.8571 82.3722 22.7598 82.3398 22.6301L81.2807 19.1502H75.0449L74.0075 22.6301C73.9642 22.7706 73.8886 22.8679 73.7805 22.9219C73.6832 22.976 73.5644 22.9976 73.4131 22.9976Z" fill="#47627B"/>
<path d="M17.9831 22.2087C17.7237 22.5762 17.4536 22.9436 17.1726 23.3219C15.1949 25.9912 13.1955 28.2931 12.2013 29.4063C11.207 28.2931 9.2077 25.9912 7.22999 23.3219C3.64201 18.4911 1.75076 14.6761 1.75076 12.2877C1.75076 6.4843 6.44107 1.77238 12.2121 1.77238C17.9831 1.77238 22.6734 6.4951 22.6734 12.2877C22.6734 13.7359 21.971 15.7028 20.6201 18.1128L13.1631 6.47349C12.8389 5.96555 12.0932 5.96555 11.7798 6.4843L5.68457 16.1675C5.33874 16.7187 5.7278 17.4428 6.37622 17.4428H13.3036C14.0061 17.4428 14.4168 16.6646 14.0385 16.0811C13.8764 15.8325 13.5954 15.6812 13.3036 15.6812H8.07295L12.4715 8.67815L19.6042 19.8095C19.5934 19.8203 19.5934 19.8311 19.5934 19.8311L20.6417 21.4522C23.1597 17.6157 24.4242 14.5464 24.4242 12.2877C24.4242 5.51165 18.945 0 12.2121 0C5.47923 0 0 5.51165 0 12.2877C0 15.0976 1.9669 19.1719 5.84667 24.3918C8.67815 28.2067 11.5529 31.2867 11.5745 31.3191L12.2121 32L12.8497 31.3191C12.8821 31.2867 15.746 28.2067 18.5775 24.3918C18.7288 24.1972 18.8693 23.9919 19.0098 23.7974L17.9831 22.2087Z" fill="#86246B"/>
</svg>
