<?xml version="1.0" encoding="UTF-8"?>
<svg id="Layer_1" xmlns="http://www.w3.org/2000/svg" version="1.1" viewBox="0 0 88.25 36.62">
  <!-- Generator: Adobe Illustrator 30.3.0, SVG Export Plug-In . SVG Version: 2.1.3 Build 182)  -->
  <defs>
    <style>
      .st0 {
        fill: #d9d4c5;
      }
    </style>
  </defs>
  <path class="st0" d="M35.68,20.09h5.49l-2.73-9.11-2.76,9.11ZM33.66,25.23c-.12,0-.25-.02-.39-.08-.14-.05-.25-.13-.34-.23-.09-.1-.14-.21-.14-.32,0-.06.01-.11.02-.16l4.72-15.35c.06-.18.17-.31.34-.4.16-.09.35-.12.54-.12.22,0,.4.04.57.14.17.09.28.22.32.39l4.7,15.35s.02.09.02.14c0,.12-.04.23-.14.32-.09.1-.21.17-.34.24-.14.06-.28.09-.43.09-.12,0-.24-.03-.33-.09-.11-.06-.17-.16-.21-.29l-1.06-3.48h-6.21l-1.04,3.48c-.04.14-.12.24-.23.29-.11.05-.24.08-.39.08Z"/>
  <path class="st0" d="M52.56,25.37c-.89,0-1.69-.16-2.4-.48-.71-.31-1.28-.83-1.7-1.53-.42-.7-.64-1.65-.64-2.82v-11.28c0-.18.08-.31.23-.41.15-.09.32-.14.52-.14s.37.04.52.14c.15.09.23.23.23.41v11.28c0,1.19.28,2.06.85,2.63.57.56,1.36.83,2.38.83s1.83-.28,2.4-.83c.57-.56.85-1.43.85-2.63v-11.28c0-.18.08-.31.23-.41.15-.09.32-.14.52-.14s.37.04.52.14c.15.09.23.23.23.41v11.28c0,1.18-.21,2.12-.63,2.82-.41.71-.98,1.22-1.71,1.53-.7.31-1.51.48-2.4.48Z"/>
  <path class="st0" d="M63.83,16.42h3.07c1.01,0,1.83-.25,2.45-.73.63-.49.94-1.31.94-2.45s-.31-1.93-.94-2.42c-.63-.49-1.45-.72-2.45-.72h-3.07v6.33ZM70.97,25.27c-.16,0-.31-.09-.45-.25-.14-.16-.24-.34-.31-.52l-3.5-6.78h-2.87v6.94c0,.19-.08.35-.24.44-.16.1-.32.15-.51.15-.19,0-.37-.05-.52-.15-.15-.1-.23-.25-.23-.44v-15.4c0-.15.05-.27.16-.38.11-.1.24-.15.41-.17h4c.89,0,1.71.14,2.44.41.73.27,1.33.72,1.77,1.37.44.64.67,1.53.67,2.68,0,.93-.15,1.71-.46,2.3-.31.61-.73,1.07-1.26,1.39-.53.32-1.13.55-1.79.67l3.48,6.69s.08.1.08.15c.01.05.01.1.01.15,0,.12-.04.24-.13.36-.09.12-.19.22-.32.28-.14.05-.27.1-.41.1Z"/>
  <path class="st0" d="M77.58,20.09h5.49l-2.73-9.11-2.76,9.11ZM75.57,25.23c-.12,0-.25-.02-.39-.08-.14-.05-.25-.13-.33-.23-.09-.1-.14-.21-.14-.32,0-.06.01-.11.02-.16l4.72-15.35c.06-.18.17-.31.34-.4.16-.09.35-.12.54-.12.21,0,.4.04.57.14.17.09.28.22.32.39l4.7,15.35s.02.09.02.14c0,.12-.04.23-.14.32-.09.1-.21.17-.33.24-.14.06-.28.09-.43.09-.12,0-.24-.03-.33-.09-.11-.06-.17-.16-.21-.29l-1.06-3.48h-6.24l-1.04,3.48c-.04.14-.12.24-.23.29-.1.05-.22.08-.37.08Z"/>
  <path class="st0" d="M20.14,24.44c-.26.37-.53.73-.81,1.11-1.98,2.67-3.98,4.97-4.97,6.08-.99-1.11-2.99-3.42-4.97-6.08-3.59-4.83-5.48-8.65-5.48-11.03,0-5.8,4.69-10.52,10.46-10.52s10.46,4.72,10.46,10.52c0,1.45-.7,3.42-2.05,5.83l-7.46-11.64c-.32-.51-1.07-.51-1.38.01l-6.1,9.68c-.35.55.04,1.28.69,1.28h6.93c.7,0,1.11-.78.73-1.36-.16-.25-.44-.4-.73-.4h-5.23l4.4-7,7.13,11.13s-.01.02-.01.02l1.05,1.62c2.52-3.84,3.78-6.91,3.78-9.16,0-6.78-5.48-12.29-12.21-12.29S2.15,7.75,2.15,14.52c0,2.81,1.97,6.88,5.85,12.1,2.83,3.81,5.71,6.89,5.73,6.93l.64.68.64-.68s2.9-3.11,5.73-6.93c.15-.19.29-.4.43-.59l-1.03-1.59Z"/>
</svg>