<?xml version="1.0" encoding="UTF-8"?>
<svg id="Layer_1" xmlns="http://www.w3.org/2000/svg" version="1.1" viewBox="0 0 1762.2 729.45">
  <!-- Generator: Adobe Illustrator 30.3.0, SVG Export Plug-In . SVG Version: 2.1.3 Build 182)  -->
  <defs>
    <style>
      .st0 {
        fill: #dad4c5;
      }
    </style>
  </defs>
  <path class="st0" d="M50.85,327.74v-48.89s73.92.21,73.92.21c11.22-2.04,20.76-6.33,30.8-11.48,18.56-9.52,35.53-21.06,52.58-33.42-22.69-22.27-53.67-58.89-56.19-89.04-4.6-55.08,39.9-101.15,94.16-101.11,53.71.04,98.04,45.81,93.83,100.64-2.31,30.17-33.31,66.93-56.18,89.46,17.84,13.19,35.92,25.12,55.52,35.02,8.93,4.51,17.54,7.88,27.41,9.9l74.46.1-.03,48.87-72.08.03c-10.05,1.3-18.79,4.77-27.93,9.25-20.41,10.02-39.22,22.42-57.3,35.89,22.97,22.62,53.59,59.2,56.07,88.94,4.58,55.07-39.84,101-93.81,101.11-54.43.11-99.08-46.52-94.03-101.72,2.72-29.68,33.5-66.2,56-88.38-17.19-12.62-34.93-24.51-54.19-34.33-9.65-4.92-18.96-8.79-29.66-10.68l-73.34-.38ZM245.86,202.57c13.05-12.65,24.92-25.51,35.02-40.28,4.68-6.85,8.65-13.43,10.52-21.63,1.27-26.35-20.01-47.98-46.06-47.73-25.45.25-46.45,22.05-44.91,48.17,2.12,7.88,5.78,14.36,10.35,20.99,10.15,14.72,21.85,27.67,35.08,40.49ZM299.64,303.63c-19.7-11.84-36.61-23.39-53.8-36.7-17.47,13.77-34.85,25.45-53.9,36.74,19.38,11.31,36.51,23.12,53.98,36.7,17.16-13.48,34.47-25.09,53.71-36.73ZM291.34,465.65c-2.68-8.43-6.38-14.94-11.11-21.67-10.05-14.3-21.54-26.93-34.34-39.26-13.82,13.52-26.14,26.91-36.44,42.47-4.06,6.14-7.22,12.12-9.05,19.32-1.33,26.45,20.12,48.07,45.94,47.82,25.75-.25,46.82-22.14,45-48.68Z"/>
  <path class="st0" d="M1642.56,568.66c10.92-5.84,19.28-12.92,28.11-21.12l34.92,30.97c-15.86,18.81-35.04,33.41-58.41,41.09-70.21,23.06-148.86-7.1-172.63-79.67-9.68-29.55-9.86-61.06-1.07-90.87,15.75-53.44,61.91-90.9,118.39-91.23,47.71-.27,85.37,19.99,107.78,62.06,9.58,18.22,14.52,37.52,16.68,58.12l.05,35.27-189.62.02c4.29,29.46,21.99,53.58,50.61,61.74,21.75,6.2,44.61,3.83,65.2-6.38ZM1658.08,473.88c-1.52-15.88-6.16-28.7-13.79-40.61-10.12-15.01-25.48-24.56-43.57-26.34-41.74-4.22-69.13,26.36-74.41,67.06l131.77-.11Z"/>
  <path class="st0" d="M1440.94,612.14c-14.04,8.44-29.55,12.41-45.88,13.22-13.69.66-26.87-.15-39.78-4.26-31.37-10.23-42.33-37.76-42.19-69.8l.02-142.01-32.8-.07v-51.07s32.79-.05,32.79-.05v-65.56s59.24.02,59.24.02v65.54s69.5.06,69.5.06v51.09s-69.54-.02-69.54-.02l.35,136.06c.04,14.6,9.96,25.16,23.77,26.69,15.15,1.92,29.52-1.28,44.22-8.24l.3,48.41Z"/>
  <path class="st0" d="M1085.23,695.22l-33.86-.22c-15.26-2.83-30.27-6.95-43.74-15.2l20.26-44.07c11.16,6.01,22.23,9.82,34.31,9.8,9.52.4,18.29-2.76,24.71-9.51,5.13-5.91,9.17-12.07,11.94-19.8l-107.37-257.93,63.92-.18,72.62,190.57,66.81-190.55,61.97.16-104.76,270.6c-13.75,32.85-30.87,60.44-66.8,66.34Z"/>
  <path class="st0" d="M873.63,620.89l-59.25.31.02-258.04,59.24-.03.07,56.86c5.31-11,10.76-21.5,19.07-30.92,17.85-21.75,44.6-32.45,72.38-30.73l-.09,62.91c-12.39-.41-23.89.92-35.32,4.83-20.16,6.8-35.58,20.98-44.71,40.23-8.08,16.89-10.77,34.77-11.3,53.66l-.09,100.92Z"/>
  <path class="st0" d="M747.41,461.09c28.27,19.78,36.08,52.8,29.94,85.42-6.99,37.17-36.72,59.17-72.27,68.53-14.84,3.48-29.05,5.98-44.74,5.99l-166.35.1v-341.85s161.91.17,161.91.17c13.89.01,26.61,2.72,39.67,6.22,38.68,11.86,65.5,40.47,64.43,82.08.12,35.4-17.67,59.32-48.06,75.58,13.15,4.93,24.48,9.75,35.47,17.77ZM699.78,376.18c-.14-15.7-7.91-28.47-21.5-35.35-9.83-5.22-20.44-7.04-31.9-7.97l-92.84-.12v90.32s88.87-.03,88.87-.03c29.93-1.32,57.68-14.27,57.38-46.85ZM718.84,520.96c.12-16.9-8.19-30.68-23.16-37.8-11.53-5.81-23.94-7.6-37.29-8.72l-104.86-.12v93.31s106.85-.09,106.85-.09c30.04-1.63,58.22-13.82,58.46-46.59Z"/>
</svg>