<?xml version="1.0" encoding="UTF-8"?>
<svg id="Layer_1" xmlns="http://www.w3.org/2000/svg" version="1.1" viewBox="0 0 640.28 526">
  <!-- Generator: Adobe Illustrator 30.3.0, SVG Export Plug-In . SVG Version: 2.1.3 Build 182)  -->
  <path d="M385.91,15.01l2.94.74,13.13,1.27c30.08,2.9,58.25,12.92,84.38,26.89,67.88,36.31,114.21,103.93,125.3,177.41,12.46,82.51-16.68,163.2-76.47,217.95-99.34,90.96-253.46,82.5-342.07-17.63-46.35,16.97-93.07,29.84-140.1,43.43-7.43,2.15-12.8-1.85-13.79-6.73,0,0-2.9-11.93,8.79-14.78,11.46-4.77,21.8-10.16,32.58-16.68,27.26-16.5,52.43-35.28,78.03-55.33-39.63-76.58-35.98-168.76,9.45-241.8,39.36-63.27,105.12-105.13,179.33-113.12l12.55-1.62h25.96ZM492.65,214.15c3.44,17.64-6.18,32.81-18.84,43.93,5.22,15.57,6.25,31.33,5.92,47.75-.52,25.38-6.33,48.46-16.41,71.49-10.42,23.81-26.41,43.22-47.67,58.36-36.37,25.9-80.08,34.59-125.33,28.3,85.56,35.85,184.39,11.98,245.89-57.18,46.64-52.45,66.27-122.96,51.51-194.2-12.67-61.18-53.16-117.19-110.19-148.35-89.47-48.89-199.78-29.48-267.84,46.53-60.19,67.23-73.88,164.98-33.81,246.32,35.07-30.01,65.95-62.88,92.65-99.64,13.43-18.49,23.89-37.19,33.49-57.73,10.3-22.04,22.38-42.33,37.23-61.44,28.47-36.66,65-59.76,112.43-51.2,17.17,3.1,31.6,10.68,43.97,23.01,14.43,14.38,23.92,32.96,23.76,53.86-.16,20.46-10.82,37.69-26.78,50.19ZM424.28,305.9c4.92,14.79,4.73,29.46.63,44.05-18.75,56.81-67.63,83.35-124.17,92.51,50.68,7.99,111.1-16.68,135.7-61,16.59-29.88,24.77-62.73,20.72-96.87-2.96-24.97-13.87-47.44-28.55-67.95,11.76-18.07,32.33-31.19,51.42-20.9,16.61-12.39,22.1-32.11,13.6-50.78-7.38-16.2-21.29-29.18-38.43-34.31-37.43-11.21-68.29,5.68-92.59,34.06-16.61,19.41-29.47,41.03-40.59,64.18-6.69,13.93-12.79,26.87-21.14,39.97-27.38,42.99-57.63,76.17-94.66,110.97-22.55,21.19-46.64,38.8-71.59,58.1,22.32-6.33,42.18-13.86,62.98-21.68,42.62-17.66,66.49-42.54,95.27-76.58,23.22-27.46,46.04-52.65,85.18-49.23,21.64,1.89,39.22,14.41,46.23,35.47ZM465.44,235.19c3.34-4.69,4.68-7.53,6.22-11.86.11-3.11-.56-8.37-4.19-9.05s-8.38,2-10.98,4.2l8.95,16.71ZM252.94,421.51c40.92,3.7,90.52-6.4,121.28-33.39,13.94-12.24,24.38-27.41,29.79-45.16,6.42-21.05-1.48-45.79-23.4-49.84-25.14-4.64-43.99,9.92-59.98,28.34l-29.22,33.68c-19.05,21.96-45.33,42.48-71.68,55.45,10.93,5.11,21.14,9.82,33.22,10.91Z"/>
  <ellipse cx="424.62" cy="169.45" rx="17.95" ry="17.98"/>
  <ellipse cx="399.01" cy="214.88" rx="14.98" ry="15"/>
  <ellipse cx="416.65" cy="250.88" rx="11.83" ry="11.84"/>
  <ellipse cx="436.41" cy="277.03" rx="7.8" ry="7.81"/>
</svg>