<?xml version="1.0" encoding="UTF-8"?>
<svg id="Layer_1" xmlns="http://www.w3.org/2000/svg" version="1.1" viewBox="0 0 782.22 175.33">
  <!-- Generator: Adobe Illustrator 30.3.0, SVG Export Plug-In . SVG Version: 2.1.3 Build 182)  -->
  <defs>
    <style>
      .st0 {
        fill: #d9d4c5;
      }
    </style>
  </defs>
  <path class="st0" d="M141.32,22.03c0-7.72-1.31-16.78-9.47-14.05-8.15,2.74-19.15,6.45-31.48,10.56-10.91,3.63-12.51,9.22-12.74,17.37v89.22c0,7.8-6.16,14.15-13.72,14.15s-13.71-6.35-13.71-14.21l-.16-106.03c-.45-5.09-1.92-9.67-5.98-10.05l.16,116.1c0,6.24,2.74,11.81,7.02,15.55-7.74-4.57-12.98-13.14-12.98-22.99l-.16-107.29c-1.87.63-3.86,1.3-5.96,2l.16,105.31c0,14.35,9.04,26.55,21.55,30.89-15.85-4.55-27.51-19.54-27.51-37.31l-.16-96.89c-1.92.65-3.92,1.32-5.97,2l.16,94.89c0,19.85,12.56,36.71,29.93,42.62-20.7-6.11-35.9-25.78-35.9-49.05l-.15-86.47c-1.63.55-3.29,1.1-4.98,1.66-.34.11-.67.23-.99.34l.15,84.47c0,25.36,16.1,46.89,38.31,54.36-25.55-7.67-44.28-32.01-44.28-60.78l-.14-75c-5.57,4.08-5.83,9.73-5.83,17.32l-.11-.2.11,57.88c0,38.3,30.24,69.46,67.4,69.46s67.41-31.16,67.41-69.46V22.03Z"/>
  <path class="st0" d="M219.61,107.93c-3.37,4.56-9.63,5.85-14.89,5.85s-11.57-1.79-14.79-6.67c-1.99-3.04-2.21-5.91-2.21-9.48v-25.11h5.68v25.11c0,2.81.16,5.15,2.21,7.26,2.48,2.54,6.68,2.98,10,2.98,7.21,0,11.15-2.28,11.15-10.24v-25.11h5.63v25.11c0,4.12-.27,6.94-2.79,10.3"/>
  <polygon class="st0" points="280.87 112.97 257.19 82.17 257.19 112.97 251.56 112.97 251.56 72.52 257.14 72.52 280.76 103.43 280.76 72.52 286.55 72.52 286.55 112.97 280.87 112.97"/>
  <rect class="st0" x="314.97" y="72.52" width="5.63" height="40.45"/>
  <polygon class="st0" points="363.79 78.43 363.79 112.97 358.22 112.97 358.22 78.43 344.22 78.43 344.22 72.52 377.64 72.52 377.64 78.43 363.79 78.43"/>
  <polygon class="st0" points="417.05 95.46 417.05 112.97 411.36 112.97 411.36 95.46 395.42 72.52 402.31 72.52 414.32 89.66 426.15 72.52 433.26 72.52 417.05 95.46"/>
  <polygon class="st0" points="487.3 112.97 487.3 93.72 459.88 93.72 459.88 112.97 456.3 112.97 456.3 72.52 459.88 72.52 459.88 90.09 487.3 90.09 487.3 72.52 490.82 72.52 490.82 112.97 487.3 112.97"/>
  <polygon class="st0" points="520.03 112.97 520.03 72.57 552.38 72.57 552.38 76.37 523.56 76.37 523.56 90.25 539.29 90.25 539.29 93.94 523.56 93.94 523.56 109.29 553.66 109.29 553.66 112.97 520.03 112.97"/>
  <path class="st0" d="M609.91,112.97l-6.89-14.42h-20.11l-6.88,14.42h-4.01l19.21-40.45h3.63l19.05,40.45h-4ZM593.07,77.18l-8.37,17.68h16.68l-8.31-17.68Z"/>
  <polygon class="st0" points="634.75 112.97 634.75 72.57 638.33 72.57 638.33 109.23 663.95 109.23 663.95 112.97 634.75 112.97"/>
  <polygon class="st0" points="700.99 76.2 700.99 112.97 697.41 112.97 697.41 76.2 682.37 76.2 682.37 72.52 715.83 72.52 715.83 76.2 700.99 76.2"/>
  <polygon class="st0" points="772.29 112.97 772.29 93.72 744.88 93.72 744.88 112.97 741.3 112.97 741.3 72.52 744.88 72.52 744.88 90.09 772.29 90.09 772.29 72.52 775.81 72.52 775.81 112.97 772.29 112.97"/>
</svg>